# File created by Blade
# Date/Time:  Mon Sep 22 17:38:34 2014
# Frame Rate: 120.000 fps
#------------------------------------------------------
:FULLY-SPECIFIED
:DEGREES
1544
root 0.286583 36.992308 5.297873 -14.173269 8.548365 4.500400
RightUpLeg 21.181208 -11.964639 0.601984
RightLeg -3.873621 -0.000000 0.000000
RightFoot -14.577497 -24.083371 9.853806
RightToeBase 9.093582 -0.000000 -0.000000
LeftUpLeg -28.653089 41.610143 13.971508
LeftLeg 70.611231 -0.000000 -0.000000
LeftFoot 16.001788 33.531535 -23.908629
LeftToeBase -1.619673 -0.000000 0.000000
Spine 27.853929 -16.673946 -6.968370
RightShoulder 2.800781 -26.793192 -10.134358
RightArm 20.541061 -17.023274 60.339118
RightForeArm 6.568533 -0.000000 48.173171
RightHand 0.213399 -0.000000 -3.210493
RightHandThumb1 -24.326973 -0.000000 -32.862282
LeftShoulder -12.718295 26.497598 10.350074
LeftArm 64.727309 -38.225930 -60.098313
LeftForeArm 36.772183 -0.000000 37.188906
LeftHand -17.769621 -0.000000 -11.877525
LeftHandThumb1 -26.253704 0.000000 33.147579
Head 15.680776 17.226016 -1.872623
1545
root 0.274600 36.992041 5.290038 -14.171175 8.452782 4.490120
RightUpLeg 21.153140 -11.946365 0.632541
RightLeg -3.867159 -0.000000 0.000000
RightFoot -14.546055 -24.013998 9.834655
RightToeBase 9.066873 -0.000000 -0.000000
LeftUpLeg -28.642729 41.564142 13.999229
LeftLeg 70.573008 -0.000000 -0.000000
LeftFoot 16.046408 33.500947 -23.928980
LeftToeBase -1.600389 -0.000000 0.000000
Spine 27.861968 -16.512761 -6.916487
RightShoulder 2.822937 -26.760130 -10.153039
RightArm 20.596483 -16.999853 60.288112
RightForeArm 6.537329 0.000000 48.502538
RightHand -0.001813 0.000000 -3.244122
RightHandThumb1 -24.326973 -0.000000 -32.862282
LeftShoulder -12.761916 26.559132 10.307153
LeftArm 64.724795 -38.263431 -60.032677
LeftForeArm 36.651054 0.000000 37.252457
LeftHand -17.740731 -0.000000 -11.855561
LeftHandThumb1 -26.253704 0.000000 33.147579
Head 15.677618 17.236300 -1.902065
1546
root 0.262920 36.990947 5.277676 -14.131804 8.362354 4.478448
RightUpLeg 21.079266 -11.958250 0.664960
RightLeg -3.860839 -0.000000 0.000000
RightFoot -14.499298 -23.962236 9.763659
RightToeBase 9.122038 -0.000000 -0.000000
LeftUpLeg -28.692359 41.509681 13.985989
LeftLeg 70.528090 -0.000000 -0.000000
LeftFoot 16.071066 33.484503 -23.952272
LeftToeBase -1.582857 -0.000000 0.000000
Spine 27.828081 -16.354607 -6.850177
RightShoulder 2.864356 -26.707351 -10.175635
RightArm 20.601034 -16.916674 60.289951
RightForeArm 6.475668 -0.000000 48.784987
RightHand 0.004037 -0.000000 -3.262754
RightHandThumb1 -24.326973 -0.000000 -32.862282
LeftShoulder -12.789202 26.616168 10.289186
LeftArm 64.703060 -38.291354 -59.978876
LeftForeArm 36.421092 0.000000 37.315905
LeftHand -17.898269 -0.000000 -11.808816
LeftHandThumb1 -26.253704 0.000000 33.147579
Head 15.684765 17.265046 -1.885643
1547
root 0.253794 36.990806 5.272569 -14.106895 8.267791 4.462112
RightUpLeg 21.037358 -11.951657 0.698190
RightLeg -3.854841 -0.000000 0.000000
RightFoot -14.499486 -23.899778 9.805109
RightToeBase 9.158431 -0.000000 -0.000000
LeftUpLeg -28.706053 41.431463 14.006806
LeftLeg 70.485468 -0.000000 -0.000000
LeftFoot 15.993109 33.503115 -24.185616
LeftToeBase -1.626458 -0.000000 0.000000
Spine 27.782529 -16.212356 -6.770405
RightShoulder 2.902191 -26.672032 -10.210241
RightArm 20.630608 -16.872235 60.266061
RightForeArm 6.426988 -0.000000 49.023005
RightHand 0.019184 -0.000000 -3.389813
RightHandThumb1 -24.326973 -0.000000 -32.862282
LeftShoulder -12.842996 26.642890 10.237670
LeftArm 64.696317 -38.290009 -59.945297
LeftForeArm 36.312647 -0.000000 37.339390
LeftHand -17.826730 -0.000000 -11.760939
LeftHandThumb1 -26.253704 0.000000 33.147579
Head 15.721011 17.242851 -1.930852
1548
root 0.243119 36.989603 5.269226 -14.098495 8.183259 4.449626
RightUpLeg 21.025293 -11.959730 0.722043
RightLeg -3.876655 -0.000000 0.000000
RightFoot -14.461676 -23.842161 9.765925
RightToeBase 9.158783 -0.000000 -0.000000
LeftUpLeg -28.692870 41.356572 14.035866
LeftLeg 70.430437 -0.000000 -0.000000
LeftFoot 15.988369 33.499801 -24.170298
LeftToeBase -1.634509 -0.000000 0.000000
Spine 27.764083 -16.073351 -6.715404
RightShoulder 2.920093 -26.654159 -10.223938
RightArm 20.664968 -16.814486 60.250847
RightForeArm 6.333364 -0.000000 49.294147
RightHand 0.048454 0.000000 -3.680556
RightHandThumb1 -24.326973 -0.000000 -32.862282
LeftShoulder -12.882241 26.647949 10.221116
LeftArm 64.648616 -38.300949 -59.929683
LeftForeArm 36.350277 0.000000 37.386827
LeftHand -17.736949 0.000000 -11.830767
LeftHandThumb1 -26.253704 0.000000 33.147579
Head 15.743617 17.288168 -1.908010
1549
root 0.234312 36.989037 5.265038 -14.098271 8.095105 4.445146
RightUpLeg 21.018474 -11.951247 0.737984
RightLeg -3.889859 -0.000000 0.000000
RightFoot -14.434111 -23.800353 9.741516
RightToeBase 9.186780 -0.000000 -0.000000
LeftUpLeg -28.664600 41.265896 14.062522
LeftLeg 70.360868 -0.000000 -0.000000
LeftFoot 16.019402 33.516711 -24.101609
LeftToeBase -1.738738 -0.000000 0.000000
Spine 27.760059 -15.932187 -6.674734
RightShoulder 2.945241 -26.638163 -10.238777
RightArm 20.711679 -16.735043 60.220863
RightForeArm 6.343581 0.000000 49.532107
RightHand 0.008929 0.000000 -3.383278
RightHandThumb1 -24.326973 -0.000000 -32.862282
LeftShoulder -12.934593 26.696602 10.209540
LeftArm 64.650817 -38.316442 -59.985664
LeftForeArm 36.328912 -0.000000 37.484893
LeftHand -17.661646 0.000000 -11.847700
LeftHandThumb1 -26.253704 0.000000 33.147579
Head 15.750202 17.272596 -1.943257
1550
root 0.226900 36.989827 5.260169 -14.098158 8.019876 4.440225
RightUpLeg 21.001758 -11.953498 0.748887
RightLeg -3.881845 -0.000000 0.000000
RightFoot -14.415338 -23.735944 9.756055
RightToeBase 9.114283 -0.000000 -0.000000
LeftUpLeg -28.623976 41.180887 14.089867
LeftLeg 70.271421 -0.000000 -0.000000
LeftFoot 15.958097 33.533865 -24.187247
LeftToeBase -1.761621 -0.000000 0.000000
Spine 27.761785 -15.806763 -6.626407
RightShoulder 2.959469 -26.601351 -10.255845
RightArm 20.742362 -16.700472 60.197052
RightForeArm 6.303259 -0.000000 49.764174
RightHand 0.030734 -0.000000 -3.486943
RightHandThumb1 -24.326973 -0.000000 -32.862282
LeftShoulder -12.951450 26.707112 10.181142
LeftArm 64.612106 -38.360813 -59.984270
LeftForeArm 36.255365 -0.000000 37.517084
LeftHand -17.601826 -0.000000 -11.756813
LeftHandThumb1 -26.253704 0.000000 33.147579
Head 15.746040 17.292987 -1.966630
1551
root 0.218639 36.989992 5.257318 -14.100713 7.927590 4.435952
RightUpLeg 20.996447 -11.943955 0.764642
RightLeg -3.892249 -0.000000 0.000000
RightFoot -14.376827 -23.688489 9.708750
RightToeBase 9.121492 -0.000000 -0.000000
LeftUpLeg -28.572085 41.109851 14.127716
LeftLeg 70.178843 -0.000000 -0.000000
LeftFoot 15.894010 33.556200 -24.250493
LeftToeBase -1.902220 -0.000000 0.000000
Spine 27.755936 -15.669626 -6.576044
RightShoulder 2.976577 -26.566767 -10.285478
RightArm 20.778294 -16.651548 60.201538
RightForeArm 6.270223 0.000000 49.957898
RightHand 0.062194 -0.000000 -3.696745
RightHandThumb1 -24.326973 -0.000000 -32.862282
LeftShoulder -12.967343 26.686602 10.159517
LeftArm 64.526101 -38.395398 -59.970726
LeftForeArm 36.301019 -0.000000 37.571628
LeftHand -17.505870 0.000000 -11.800373
LeftHandThumb1 -26.253704 0.000000 33.147579
Head 15.742575 17.317314 -2.003161
1552
root 0.211680 36.991687 5.256898 -14.118264 7.859982 4.451415
RightUpLeg 21.019577 -11.959860 0.744405
RightLeg -3.903021 -0.000000 0.000000
RightFoot -14.345687 -23.619473 9.710013
RightToeBase 9.082712 -0.000000 -0.000000
LeftUpLeg -28.487891 41.007951 14.147385
LeftLeg 70.061516 -0.000000 -0.000000
LeftFoot 15.786496 33.564683 -24.309000
LeftToeBase -1.904618 -0.000000 0.000000
Spine 27.771777 -15.557269 -6.571733
RightShoulder 2.999203 -26.535520 -10.291202
RightArm 20.811268 -16.586596 60.199457
RightForeArm 6.176911 0.000000 50.146659
RightHand 0.051482 -0.000000 -3.854241
RightHandThumb1 -24.326973 -0.000000 -32.862282
LeftShoulder -13.015772 26.701418 10.127654
LeftArm 64.479411 -38.427844 -59.979535
LeftForeArm 36.253216 -0.000000 37.648571
LeftHand -17.388043 0.000000 -11.745231
LeftHandThumb1 -26.253704 0.000000 33.147579
Head 15.735818 17.312423 -2.063275
1553
root 0.204343 36.993010 5.254882 -14.125364 7.779340 4.463245
RightUpLeg 21.022573 -11.947185 0.740257
RightLeg -3.912404 -0.000000 0.000000
RightFoot -14.310077 -23.572456 9.684086
RightToeBase 9.064654 -0.000000 -0.000000
LeftUpLeg -28.412754 40.931690 14.170010
LeftLeg 69.939558 -0.000000 -0.000000
LeftFoot 15.771553 33.532328 -24.234876
LeftToeBase -1.973387 -0.000000 0.000000
Spine 27.773037 -15.430616 -6.556402
RightShoulder 3.005697 -26.527553 -10.291610
RightArm 20.893752 -16.562996 60.131469
RightForeArm 6.269263 -0.000000 50.301174
RightHand 0.040599 -0.000000 -3.706567
RightHandThumb1 -24.326973 -0.000000 -32.862282
LeftShoulder -13.069694 26.739581 10.087731
LeftArm 64.502281 -38.472450 -60.031359
LeftForeArm 36.373133 0.000000 37.686294
LeftHand -17.401237 -0.000000 -11.905006
LeftHandThumb1 -26.253704 0.000000 33.147579
Head 15.736215 17.338719 -2.068131
1554
root 0.198544 36.994141 5.254534 -14.132222 7.695505 4.472169
RightUpLeg 21.025945 -11.937138 0.736103
RightLeg -3.913217 -0.000000 0.000000
RightFoot -14.309085 -23.507700 9.706627
RightToeBase 9.135959 -0.000000 -0.000000
LeftUpLeg -28.339640 40.872076 14.197266
LeftLeg 69.824951 -0.000000 -0.000000
LeftFoot 15.724649 33.528347 -24.230877
LeftToeBase -1.921974 -0.000000 0.000000
Spine 27.770923 -15.318498 -6.528934
RightShoulder 3.022503 -26.486339 -10.308525
RightArm 20.915701 -16.530144 60.147610
RightForeArm 6.216395 -0.000000 50.445500
RightHand 0.020748 0.000000 -3.590980
RightHandThumb1 -24.326973 -0.000000 -32.862282
LeftShoulder -13.117553 26.730422 10.030690
LeftArm 64.412106 -38.494220 -59.931811
LeftForeArm 36.356929 -0.000000 37.704611
LeftHand -17.548468 -0.000000 -11.948033
LeftHandThumb1 -26.253704 0.000000 33.147579
Head 15.723255 17.391750 -2.102307
